<svg width="349" height="77" viewBox="0 0 349 77" fill="none" xmlns="http://www.w3.org/2000/svg">
<path d="M77 38.5C77 59.7627 59.7627 77 38.5 77C17.2373 77 0 59.7627 0 38.5C0 17.2373 17.2373 0 38.5 0C59.7627 0 77 17.2373 77 38.5Z" fill="#FFCC4D"/>
<path d="M38.5 44.9167C30.7508 44.9167 25.6089 44.0141 19.25 42.7778C17.7977 42.4976 14.9722 42.7778 14.9722 47.0556C14.9722 55.6111 24.8004 66.3056 38.5 66.3056C52.1975 66.3056 62.0278 55.6111 62.0278 47.0556C62.0278 42.7778 59.2023 42.4954 57.75 42.7778C51.3911 44.0141 46.2492 44.9167 38.5 44.9167Z" fill="#664500"/>
<path d="M19.25 47.0556C19.25 47.0556 25.6667 49.1944 38.5 49.1944C51.3333 49.1944 57.75 47.0556 57.75 47.0556C57.75 47.0556 53.4722 55.6111 38.5 55.6111C23.5278 55.6111 19.25 47.0556 19.25 47.0556Z" fill="white"/>
<path d="M33.5421 9.43892L23.8272 11.1522L18.8222 2.05547C18.2704 1.05234 17.1368 0.515474 16.016 0.712252C14.8888 0.911169 14.0119 1.80522 13.8365 2.93456L12.243 13.1948L2.52817 14.9081C1.38387 15.1091 0.500505 16.031 0.344366 17.1838C0.188227 18.3367 0.795672 19.4575 1.848 19.958L10.5533 24.0903L8.95339 34.3826C8.77587 35.5291 9.35764 36.6584 10.3929 37.1824C10.7757 37.3749 11.1864 37.4669 11.5949 37.4669C12.2943 37.4669 12.9852 37.1931 13.5007 36.6713L21.0124 29.0547L30.6759 33.6426C31.724 34.1388 32.9731 33.9057 33.7688 33.0608C34.5644 32.2159 34.7227 30.9561 34.1645 29.9402L29.1424 20.8114L35.912 13.9498C36.729 13.1221 36.9151 11.8601 36.3761 10.8292C35.8328 9.79825 34.6799 9.24 33.5421 9.43892V9.43892ZM43.458 9.43892L53.1728 11.1522L58.1778 2.05547C58.7296 1.05234 59.8632 0.515474 60.984 0.712252C62.1091 0.911169 62.986 1.80522 63.1614 2.93456L64.7549 13.1948L74.4697 14.9081C75.6161 15.1091 76.4995 16.0288 76.6535 17.1817C76.8075 18.3346 76.2022 19.4553 75.1499 19.9558L66.4446 24.0882L68.0445 34.3805C68.222 35.5269 67.6402 36.6563 66.605 37.1803C66.2221 37.3728 65.8115 37.4648 65.4029 37.4648C64.7035 37.4648 64.0127 37.191 63.4972 36.6691L55.9854 29.0525L46.3219 33.6404C45.2739 34.1367 44.0248 33.9035 43.2291 33.0587C42.4334 32.2138 42.2751 30.954 42.8334 29.938L47.8555 20.8114L41.0859 13.9498C40.2689 13.1221 40.0828 11.8601 40.6218 10.8292C41.1672 9.79825 42.3201 9.24 43.458 9.43892V9.43892Z" fill="#E95F28"/>
<path d="M127.542 10.4389L117.827 12.1522L112.822 3.05547C112.27 2.05234 111.137 1.51547 110.016 1.71225C108.889 1.91117 108.012 2.80522 107.836 3.93456L106.243 14.1948L96.5282 15.9081C95.3839 16.1091 94.5005 17.031 94.3444 18.1838C94.1882 19.3367 94.7957 20.4575 95.848 20.958L104.553 25.0903L102.953 35.3826C102.776 36.5291 103.358 37.6584 104.393 38.1824C104.776 38.3749 105.186 38.4669 105.595 38.4669C106.294 38.4669 106.985 38.1931 107.501 37.6713L115.012 30.0547L124.676 34.6426C125.724 35.1388 126.973 34.9057 127.769 34.0608C128.564 33.2159 128.723 31.9561 128.164 30.9402L123.142 21.8114L129.912 14.9498C130.729 14.1221 130.915 12.8601 130.376 11.8292C129.833 10.7983 128.68 10.24 127.542 10.4389V10.4389ZM137.458 10.4389L147.173 12.1522L152.178 3.05547C152.73 2.05234 153.863 1.51547 154.984 1.71225C156.109 1.91117 156.986 2.80522 157.161 3.93456L158.755 14.1948L168.47 15.9081C169.616 16.1091 170.5 17.0288 170.654 18.1817C170.808 19.3346 170.202 20.4553 169.15 20.9558L160.445 25.0882L162.044 35.3805C162.222 36.5269 161.64 37.6563 160.605 38.1803C160.222 38.3728 159.811 38.4648 159.403 38.4648C158.704 38.4648 158.013 38.191 157.497 37.6691L149.985 30.0525L140.322 34.6404C139.274 35.1367 138.025 34.9035 137.229 34.0587C136.433 33.2138 136.275 31.954 136.833 30.938L141.856 21.8114L135.086 14.9498C134.269 14.1221 134.083 12.8601 134.622 11.8292C135.167 10.7983 136.32 10.24 137.458 10.4389V10.4389Z" fill="#28E9E9"/>
<path d="M222.235 16.4331L214.856 17.6903L211.054 11.0152C210.635 10.2791 209.774 9.88514 208.922 10.0295C208.066 10.1755 207.4 10.8316 207.267 11.6603L206.057 19.1892L198.677 20.4464C197.808 20.5939 197.137 21.2704 197.018 22.1163C196.9 22.9623 197.361 23.7847 198.161 24.152L204.773 27.1843L203.558 34.7368C203.423 35.578 203.865 36.4067 204.651 36.7913C204.942 36.9325 205.254 37 205.564 37C206.096 37 206.62 36.7991 207.012 36.4161L212.718 30.8271L220.058 34.1937C220.854 34.5578 221.803 34.3868 222.407 33.7668C223.012 33.1469 223.132 32.2224 222.708 31.4769L218.893 24.7782L224.035 19.7432C224.656 19.1358 224.797 18.2098 224.388 17.4533C223.975 16.6968 223.099 16.2872 222.235 16.4331V16.4331ZM229.767 16.4331L237.146 17.6903L240.948 11.0152C241.367 10.2791 242.228 9.88514 243.08 10.0295C243.934 10.1755 244.6 10.8316 244.734 11.6603L245.944 19.1892L253.323 20.4464C254.194 20.5939 254.865 21.2688 254.982 22.1148C255.099 22.9607 254.639 23.7832 253.84 24.1504L247.227 27.1827L248.443 34.7352C248.577 35.5765 248.136 36.4052 247.349 36.7897C247.058 36.9309 246.746 36.9984 246.436 36.9984C245.905 36.9984 245.38 36.7975 244.989 36.4146L239.283 30.8255L231.942 34.1921C231.146 34.5563 230.198 34.3852 229.593 33.7652C228.989 33.1453 228.869 32.2208 229.293 31.4753L233.107 24.7782L227.965 19.7432C227.345 19.1358 227.203 18.2098 227.613 17.4533C228.027 16.6968 228.903 16.2872 229.767 16.4331V16.4331Z" fill="#28E9E9"/>
<path d="M316.235 16.4331L308.856 17.6903L305.054 11.0152C304.635 10.2791 303.774 9.88514 302.922 10.0295C302.066 10.1755 301.4 10.8316 301.267 11.6603L300.057 19.1892L292.677 20.4464C291.808 20.5939 291.137 21.2704 291.018 22.1163C290.9 22.9623 291.361 23.7847 292.161 24.152L298.773 27.1843L297.558 34.7368C297.423 35.578 297.865 36.4067 298.651 36.7913C298.942 36.9325 299.254 37 299.564 37C300.096 37 300.62 36.7991 301.012 36.4161L306.718 30.8271L314.058 34.1937C314.854 34.5578 315.803 34.3868 316.407 33.7668C317.012 33.1469 317.132 32.2224 316.708 31.4769L312.893 24.7782L318.035 19.7432C318.656 19.1358 318.797 18.2098 318.388 17.4533C317.975 16.6968 317.099 16.2872 316.235 16.4331V16.4331ZM323.767 16.4331L331.146 17.6903L334.948 11.0152C335.367 10.2791 336.228 9.88514 337.08 10.0295C337.934 10.1755 338.6 10.8316 338.734 11.6603L339.944 19.1892L347.323 20.4464C348.194 20.5939 348.865 21.2688 348.982 22.1148C349.099 22.9607 348.639 23.7832 347.84 24.1504L341.227 27.1827L342.443 34.7352C342.577 35.5765 342.136 36.4052 341.349 36.7897C341.058 36.9309 340.746 36.9984 340.436 36.9984C339.905 36.9984 339.38 36.7975 338.989 36.4146L333.283 30.8255L325.942 34.1921C325.146 34.5563 324.198 34.3852 323.593 33.7652C322.989 33.1453 322.869 32.2208 323.293 31.4753L327.107 24.7782L321.965 19.7432C321.345 19.1358 321.203 18.2098 321.613 17.4533C322.027 16.6968 322.903 16.2872 323.767 16.4331V16.4331Z" fill="#4FE928"/>
</svg>
