<svg width="350" height="82" viewBox="0 0 350 82" fill="none" xmlns="http://www.w3.org/2000/svg">
<path d="M75.5191 34.8151C79.9374 55.6635 66.8055 76.188 46.1881 80.6558C25.5708 85.1237 5.2737 71.8446 0.855392 50.9962C-3.56292 30.1478 9.57111 9.62332 30.1863 5.1555C50.8037 0.68554 71.1008 13.9667 75.5191 34.8151Z" fill="#FFCB4C"/>
<path d="M62.1284 23.6188C63.7807 31.4176 58.8682 39.0963 51.1558 40.7672C43.4434 42.4381 35.8497 37.4705 34.1953 29.6717C32.5429 21.8728 37.4554 14.1941 45.1679 12.5232C52.8803 10.8523 60.476 15.8178 62.1284 23.6188Z" fill="#F4F7F9"/>
<path d="M47.3272 28.5863C49.7134 28.5863 51.6479 26.6302 51.6479 24.2172C51.6479 21.8042 49.7134 19.848 47.3272 19.848C44.9409 19.848 43.0064 21.8042 43.0064 24.2172C43.0064 26.6302 44.9409 28.5863 47.3272 28.5863Z" fill="#292F33"/>
<path d="M29.8958 34.9224C30.863 39.4824 27.9889 43.9717 23.4794 44.9498C18.9698 45.9279 14.5303 43.0215 13.5631 38.4615C12.5958 33.9014 15.47 29.4121 19.9795 28.4341C24.489 27.456 28.9285 30.3623 29.8958 34.9224V34.9224Z" fill="#F4F7F9"/>
<path d="M22.5942 42.3724C24.8187 41.8904 26.2355 39.6761 25.7589 37.4267C25.2822 35.1773 23.0924 33.7446 20.868 34.2266C18.6435 34.7086 17.2266 36.9229 17.7033 39.1723C18.18 41.4217 20.3697 42.8544 22.5942 42.3724Z" fill="#292F33"/>
<path d="M39.5193 49.1967C32.0042 50.8246 26.8329 51.0198 20.408 51.1442C18.9423 51.1764 16.2612 52.0429 17.1499 56.2384C18.9274 64.627 30.6806 73.0479 43.9652 70.1695C57.2477 67.291 64.5571 54.7391 62.7796 46.3504C61.8909 42.155 59.091 42.4724 57.7419 43.0558C51.8325 45.6018 47.0345 47.5687 39.5193 49.1967Z" fill="#65471B"/>
<path d="M23.3457 55.775V68.6444C23.3457 75.0791 27.588 81.5138 36.0725 81.5138C44.557 81.5138 48.7992 75.0791 48.7992 68.6444V55.775H23.3457V55.775Z" fill="#E8596E"/>
<path d="M36.0724 72.6747C36.7109 72.6747 37.2285 72.1513 37.2285 71.5057V58.0036H34.9143V71.5057C34.9164 72.1513 35.434 72.6747 36.0724 72.6747V72.6747Z" fill="#DD2F45"/>
<path d="M21.2967 55.3397C21.2967 55.3397 27.9634 56.0882 40.408 53.3921C52.8527 50.696 58.6307 47.2491 58.6307 47.2491C58.6307 47.2491 56.2614 56.5365 41.7422 59.6831C27.2231 62.8296 21.2967 55.3397 21.2967 55.3397V55.3397Z" fill="white"/>
<path d="M166.728 32.6702C171.146 53.5186 158.014 74.0431 137.397 78.5109C116.779 82.9788 96.4822 69.6997 92.0639 48.8513C87.6456 28.0029 100.78 7.47842 121.395 3.01061C142.012 -1.45936 162.309 11.8218 166.728 32.6702Z" fill="#FFCB4C"/>
<path d="M130.067 26.4334C131.719 34.2322 126.807 41.9109 119.095 43.5818C111.382 45.2527 103.788 40.2851 102.134 32.4863C100.482 24.6874 105.394 17.0087 113.107 15.3378C120.819 13.6669 128.415 18.6324 130.067 26.4334Z" fill="#F4F7F9"/>
<path d="M115.266 31.4009C117.652 31.4009 119.587 29.4448 119.587 27.0318C119.587 24.6187 117.652 22.6626 115.266 22.6626C112.88 22.6626 110.945 24.6187 110.945 27.0318C110.945 29.4448 112.88 31.4009 115.266 31.4009Z" fill="#292F33"/>
<path d="M150.151 17.4022C151.118 21.9623 148.244 26.4515 143.735 27.4296C139.225 28.4077 134.786 25.5013 133.818 20.9413C132.851 16.3812 135.725 11.892 140.235 10.9139C144.744 9.93583 149.184 12.8422 150.151 17.4022V17.4022Z" fill="#F4F7F9"/>
<path d="M142.849 24.8523C145.074 24.3702 146.491 22.156 146.014 19.9065C145.537 17.6571 143.348 16.2244 141.123 16.7064C138.899 17.1884 137.482 19.4027 137.959 21.6521C138.435 23.9015 140.625 25.3343 142.849 24.8523Z" fill="#292F33"/>
<path d="M130.728 47.0518C123.213 48.6797 118.041 48.8749 111.616 48.9993C110.151 49.0315 107.47 49.898 108.358 54.0935C110.136 62.4821 121.889 70.903 135.174 68.0246C148.456 65.1461 155.766 52.5942 153.988 44.2055C153.099 40.0101 150.299 40.3275 148.95 40.9109C143.041 43.4569 138.243 45.4238 130.728 47.0518Z" fill="#65471B"/>
<path d="M114.554 53.6301V66.4995C114.554 72.9342 118.796 79.3689 127.281 79.3689C135.765 79.3689 140.008 72.9342 140.008 66.4995V53.6301H114.554V53.6301Z" fill="#E8596E"/>
<path d="M127.281 70.5298C127.919 70.5298 128.437 70.0064 128.437 69.3608V55.8587H126.123V69.3608C126.125 70.0064 126.642 70.5298 127.281 70.5298V70.5298Z" fill="#DD2F45"/>
<path d="M112.505 53.1948C112.505 53.1948 119.172 53.9433 131.617 51.2472C144.061 48.5511 149.839 45.1042 149.839 45.1042C149.839 45.1042 147.47 54.3916 132.951 57.5382C118.432 60.6847 112.505 53.1948 112.505 53.1948V53.1948Z" fill="white"/>
<path d="M257.936 32.6702C262.354 53.5186 249.222 74.0431 228.605 78.5109C207.988 82.9788 187.691 69.6997 183.272 48.8513C178.854 28.0029 191.988 7.47842 212.603 3.01061C233.221 -1.45936 253.518 11.8218 257.936 32.6702Z" fill="#FFCB4C"/>
<path d="M221.276 26.4334C222.928 34.2322 218.015 41.9109 210.303 43.5818C202.591 45.2527 194.997 40.2851 193.342 32.4863C191.69 24.6874 196.603 17.0087 204.315 15.3378C212.027 13.6669 219.623 18.6324 221.276 26.4334Z" fill="#F4F7F9"/>
<path d="M206.474 31.4009C208.861 31.4009 210.795 29.4448 210.795 27.0318C210.795 24.6187 208.861 22.6626 206.474 22.6626C204.088 22.6626 202.154 24.6187 202.154 27.0318C202.154 29.4448 204.088 31.4009 206.474 31.4009Z" fill="#292F33"/>
<path d="M241.36 17.4022C242.327 21.9623 239.453 26.4515 234.943 27.4296C230.434 28.4077 225.994 25.5013 225.027 20.9413C224.06 16.3812 226.934 11.892 231.443 10.9139C235.953 9.93583 240.392 12.8422 241.36 17.4022V17.4022Z" fill="#F4F7F9"/>
<path d="M234.058 24.8523C236.282 24.3702 237.699 22.156 237.223 19.9065C236.746 17.6571 234.556 16.2244 232.332 16.7064C230.107 17.1884 228.69 19.4027 229.167 21.6521C229.644 23.9015 231.833 25.3343 234.058 24.8523Z" fill="#292F33"/>
<path d="M221.936 47.0518C214.421 48.6797 209.25 48.8749 202.825 48.9993C201.359 49.0315 198.678 49.898 199.567 54.0935C201.344 62.4821 213.098 70.903 226.382 68.0246C239.665 65.1461 246.974 52.5942 245.197 44.2055C244.308 40.0101 241.508 40.3275 240.159 40.9109C234.249 43.4569 229.451 45.4238 221.936 47.0518Z" fill="#65471B"/>
<path d="M218.476 59.2771L224.454 70.6386C227.443 76.3193 234.177 79.9851 241.667 75.9554C249.157 71.9256 249.914 64.23 246.925 58.5492L240.947 47.1878L218.476 59.2771V59.2771Z" fill="#E8596E"/>
<path d="M237.561 68.1519C238.125 67.8487 238.339 67.1409 238.039 66.5709L231.767 54.6508L229.724 55.7499L235.996 67.67C236.298 68.239 236.998 68.4552 237.561 68.1519V68.1519Z" fill="#DD2F45"/>
<path d="M203.714 53.1948C203.714 53.1948 210.38 53.9433 222.825 51.2472C235.27 48.5511 241.048 45.1042 241.048 45.1042C241.048 45.1042 238.678 54.3916 224.159 57.5382C209.64 60.6847 203.714 53.1948 203.714 53.1948V53.1948Z" fill="white"/>
<path d="M349.144 30.5253C353.563 51.3737 340.431 71.8982 319.814 76.3661C299.196 80.8339 278.899 67.5548 274.481 46.7064C270.062 25.858 283.197 5.33353 303.812 0.865709C324.429 -3.60425 344.726 9.67694 349.144 30.5253Z" fill="#FFCB4C"/>
<path d="M310.363 22.1436C312.015 29.9424 307.103 37.6211 299.39 39.292C291.678 40.9629 284.084 35.9953 282.43 28.1965C280.777 20.3976 285.69 12.7189 293.402 11.048C301.115 9.37716 308.711 14.3426 310.363 22.1436Z" fill="#F4F7F9"/>
<path d="M295.562 27.1111C297.948 27.1111 299.882 25.155 299.882 22.742C299.882 20.3289 297.948 18.3728 295.562 18.3728C293.175 18.3728 291.241 20.3289 291.241 22.742C291.241 25.155 293.175 27.1111 295.562 27.1111Z" fill="#292F33"/>
<path d="M340.059 19.9987C341.711 27.7975 336.799 35.4762 329.086 37.1471C321.374 38.818 313.78 33.8504 312.126 26.0516C310.473 18.2527 315.386 10.574 323.098 8.90313C330.811 7.23226 338.406 12.1977 340.059 19.9987Z" fill="#F4F7F9"/>
<path d="M325.257 24.9662C327.644 24.9662 329.578 23.0101 329.578 20.5971C329.578 18.184 327.644 16.2279 325.257 16.2279C322.871 16.2279 320.937 18.184 320.937 20.5971C320.937 23.0101 322.871 24.9662 325.257 24.9662Z" fill="#292F33"/>
<path d="M313.145 44.9069C305.63 46.5348 300.458 46.73 294.033 46.8544C292.568 46.8866 289.887 47.7531 290.775 51.9486C292.553 60.3372 304.306 68.7581 317.591 65.8797C330.873 63.0012 338.183 50.4493 336.405 42.0606C335.516 37.8652 332.716 38.1826 331.367 38.766C325.458 41.312 320.66 43.2789 313.145 44.9069Z" fill="#65471B"/>
<path d="M309.685 57.1322L315.662 68.4937C318.651 74.1744 325.385 77.8402 332.876 73.8105C340.366 69.7807 341.122 62.0851 338.133 56.4043L332.156 45.0429L309.685 57.1322V57.1322Z" fill="#E8596E"/>
<path d="M328.77 66.0071C329.334 65.7038 329.547 64.996 329.247 64.426L322.976 52.5059L320.933 53.6051L327.204 65.5251C327.506 66.0941 328.206 66.3103 328.77 66.0071V66.0071Z" fill="#DD2F45"/>
<path d="M294.922 51.0499C294.922 51.0499 301.589 51.7984 314.033 49.1023C326.478 46.4062 332.256 42.9593 332.256 42.9593C332.256 42.9593 329.887 52.2467 315.368 55.3933C300.849 58.5398 294.922 51.0499 294.922 51.0499V51.0499Z" fill="white"/>
</svg>
